# This file uses centimeters as units for non-parametric coordinates.

v -8.526305 -0.500000 -9.241142
v -8.526305 -0.500000 -7.741142
v -7.227267 -0.500000 -8.491142
v -8.526305 0.500000 -9.241142
v -8.526305 0.500000 -7.741142
v -7.227267 0.500000 -8.491142
v -8.093292 -1.000000 -8.491142
v -8.093292 1.000000 -8.491142
vt 0.000000 0.333333
vt 0.333333 0.333333
vt 0.666667 0.333333
vt 1.000000 0.333333
vt 0.000000 0.666667
vt 0.333333 0.666667
vt 0.666667 0.666667
vt 1.000000 0.666667
vt 0.166667 0.000000
vt 0.500000 0.000000
vt 0.833333 0.000000
vt 0.166667 1.000000
vt 0.500000 1.000000
vt 0.833333 1.000000
vn -1.000000 0.000000 -0.000000
vn -1.000000 0.000000 -0.000000
vn -1.000000 0.000000 -0.000000
vn -1.000000 0.000000 -0.000000
vn 0.500000 -0.000000 0.866025
vn 0.500000 -0.000000 0.866025
vn 0.500000 -0.000000 0.866025
vn 0.500000 0.000000 0.866025
vn 0.500000 0.000000 -0.866025
vn 0.500000 0.000000 -0.866025
vn 0.500000 0.000000 -0.866025
vn 0.500000 0.000000 -0.866025
vn -0.755929 -0.654654 -0.000000
vn -0.755929 -0.654654 -0.000000
vn -0.755929 -0.654654 -0.000000
vn 0.377964 -0.654654 0.654654
vn 0.377964 -0.654653 0.654654
vn 0.377964 -0.654654 0.654654
vn 0.377964 -0.654654 -0.654654
vn 0.377964 -0.654654 -0.654654
vn 0.377964 -0.654654 -0.654654
vn -0.755929 0.654654 -0.000000
vn -0.755929 0.654654 -0.000000
vn -0.755929 0.654654 -0.000000
vn 0.377965 0.654654 0.654654
vn 0.377965 0.654654 0.654654
vn 0.377964 0.654654 0.654654
vn 0.377965 0.654654 -0.654654
vn 0.377965 0.654654 -0.654654
vn 0.377965 0.654654 -0.654654
f 1/1/1 2/2/2 4/5/3
f 4/5/3 2/2/2 5/6/4
f 2/2/5 3/3/6 5/6/7
f 5/6/7 3/3/6 6/7/8
f 3/3/9 1/4/10 6/7/11
f 6/7/11 1/4/10 4/8/12
f 2/2/13 1/1/14 7/9/15
f 3/3/16 2/2/17 7/10/18
f 1/4/19 3/3/20 7/11/21
f 4/5/22 5/6/23 8/12/24
f 5/6/25 6/7/26 8/13/27
f 6/7/28 4/8/29 8/14/30
